<?xml version="1.0" encoding="UTF-8"?>
<svg version="1.1" viewBox="0 0 200 307.82" xmlns="http://www.w3.org/2000/svg" xmlns:cc="http://creativecommons.org/ns#" xmlns:dc="http://purl.org/dc/elements/1.1/" xmlns:rdf="http://www.w3.org/1999/02/22-rdf-syntax-ns#">
<metadata>
<rdf:RDF>
<cc:Work rdf:about="">
<dc:format>image/svg+xml</dc:format>
<dc:type rdf:resource="http://purl.org/dc/dcmitype/StillImage"/>
<dc:title/>
</cc:Work>
</rdf:RDF>
</metadata>
<g transform="scale(1.2024)">
<path d="m46.653 0.79399-3.0338-0.094805h-3.3283l-0.74246-0.40292-1.9714-0.11851-3.1746 1.3747-1.1265 1.7539 0.12801 0.14221-0.48644 0.54513-0.15361 0.94806-0.25602 0.11851-0.0256 0.37923-0.40963 0.30812-0.51204 1.2325-0.79366 2.2517-0.94727 0.56885-2.7394-0.66365-3.021-0.54514-1.997-0.35553-3.0978-0.047404-1.997 0.26072-1.9201 0.37923-1.5105 0.61625-2.509 1.6354-0.17921 0.45034 0.07681 0.40294 1.997 5.5463 1.4593 5.2383 0.40963 0.21333 2.5346-0.92441-0.15361-0.30814 0.25602-0.04741 0.07681 0.30814 1.6897-0.59257 0.0512-0.16592 8.4743-2.394-0.0256-0.16592-0.99848 0.26073-0.23042-0.71108 1.0497-0.23702-0.10241-0.23702-1.0241 0.23702-0.38403-1.1377 0.89607-0.23702-0.10241-0.37924-1.7153 0.42664 0.0256-0.30813 3.9171-1.2562 2.3554 6.8263-11.572 3.1999-0.28162 0.23703-0.10241 1.0666 0.23042 0.30814 1.4081 1.0666 2.9442-0.92442 0.15361 0.18962 1.7409-0.49777 0.14081 0.23703-0.60165 0.10666 0.19202 0.49777 1.2545-0.37925 0.07681 0.15407-0.48644 0.16592 0.12801 0.14222 0.47364 0.0237 0.42243 1.2681 0.46084-0.14222 0.0512 0.13037-1.9714 0.49777-0.30722-1.0311-0.19202 0.05926 0.34563 1.0429-0.84486 0.20148-0.34563-1.0785-0.28162 0.08296 0.40963 0.98369-0.88327 0.20148-0.33283-1.0429-0.24322 0.03556 0.43523 1.1022-0.67845 0.17778-0.75526-0.78221-1.0369 0.20148-0.44803 0.23703-0.42243 0.69925-0.33283 1.7304 0.19202 0.48592 0.57604-0.13037-0.30722 0.40296 0.40963 0.28444-0.88327-0.16592-0.55044 2.8918 0.37123 0.07111-0.0384 0.39111 0.37123 0.0237-0.17921 0.60445-0.10241-0.03556-0.12801 0.32 0.24322 0.0237-0.10241 0.67556-0.25602-0.07111-0.07681 0.36741 0.21762 0.07111-0.10241 0.2726-0.65285-0.09482-0.55044 2.1097 0.80646 0.08296-0.11521 0.30815-0.12801-0.01185h-0.12801l-0.11521 0.28445 0.43523 0.07111-0.14081 0.50964-0.34563-0.05926v0.42668l0.21762 0.07111-0.11521 0.28445-0.26882 0.01185-0.17921 0.52149-0.39683-0.07111-0.39683 1.9556 0.58885 0.11852 0.0384 0.15408-0.62725-0.11852 0.0512 0.17778 0.49924 0.07111-0.0256 0.26075-0.57604-0.18964v0.22519l0.42243 0.04741 0.0256 0.13037-1.1009-0.30816-0.89607 3.4727 0.89607 0.2489-0.064 0.08297 0.28162 0.10667-0.17921 0.29631-0.52484-0.15408-0.30722 1.1615 0.29442 0.0237-0.44804 1.2327-0.20482-0.0237-0.55044 1.2564 1.1777 0.34372-0.14081 0.13038-0.21762-0.16594-0.20482 0.27261 0.40963 0.15408-0.07681 0.15408-1.1521-0.39113-0.55044 1.6238 0.29442 0.10667-0.28162 0.40299-0.21762-0.11853-0.57604 1.126-0.28162-0.18964-4.8004 5.7367 0.65285 0.56894-0.86407 1.1794-0.46084-0.30225-0.90887 1.209-0.30722-0.23706-1.2225 1.5764 0.24962 0.21335-0.057604 0.10075-0.48644-0.33188-0.23682 0.023706-1.6961 2.5247 0.69125 0.30818-0.12801 0.24892 0.37763 0.24891-0.22402 0.30818-0.45444-0.22521-0.14721 0.25484 1.0177 1.6772-0.82566 0.42079-0.69125 0.48005-1.1265 1.0727-0.97928 1.4639-0.47364 1.1261-0.22402 0.73491-0.15361 0.78825 0.11521 0.68157-0.12161 0.32597 0.37763 1.7602 0.42243 1.3039 1.3761 2.3648 0.32643 0.33783 0.42243 0.61046 0.025602 0.243 0.78086 0.96015 0.56324 0.52749 0.83846 0.52156 1.2481 0.56898 0.69125 0.59269-0.019201 0.42674-0.17281 0.10076-0.17921 0.1541-0.019201 0.27264 0.076806 0.16003 0.24962 0.17781 0.25602 0.02371 0.23682-0.16595 0.089607-0.23115-0.032002-0.21337-0.16641-0.18966-0.21122-0.10668-0.019201-0.32598 1.0945 0.91867-0.044803 0.07705v0.90089l1.5361 1.8492 2.0994 2.9872 13.057 25.985-0.51204 0.0948-0.30722 0.94839 1.4337 4.4575 0.40963 4.3627 0.92167 4.6473 4.1987 11.429 1.3825 1.7547 7.8854 5.8332 7.7318 8.3942 1.1265-0.66395-3.9939-4.9796 1.0241-0.66395 4.6084 0.0474 0.20482 7.3509-1.4849 0.0474-0.20482-0.66396-0.66565 0.1897 6.5029 8.8687-0.07681 34.031-0.71686 0.4506-0.30722 1.2332-0.64005 0.75891 0.23042 1.4467 0.46084 0.83007 0.48644-0.0237-0.35843 1.6601-0.15361 5.2888 0.35843 0.11858v0.40318l-0.28162 0.11859 0.22402 6.0004 0.65925 0.98427-0.10241 1.5713-0.68485 0.37948-0.64645 0.587-0.76806 0.32611 0.10241 0.16603-0.37763 0.17195v0.1423l-0.37763 0.21346-0.42883-0.38541-0.35203 0.26682 0.34563 0.19567-0.14721 0.0889-0.69125-0.0356-0.07681 0.55736 0.40963 0.083-0.064 0.1008-0.74886-0.19567-0.14721 0.52178 0.47364 0.17196-0.35843 1.1266-0.26882-0.0652-0.06401 0.34391 0.23682 0.18974-0.0192 0.72932-0.37763 0.0178 0.0384 0.3439-0.98568 0.15417 0.07681 0.61666 0.25602-0.0949-0.0512-0.42692 1.2033-0.21346 0.0256 0.11859-0.0256 0.75897 0.64005 0.28461 0.30722-0.18974 0.61445 0.59295-0.30722 0.21346-0.10241 1.2096 1.3057-0.4032 0.20482 1.0673-0.89607 3.6052-1.2033 3.2376-0.71686 0.6404-0.99848 0.45066 0.10241 0.27276-0.72966 0.71156 0.24322 0.3202 0.19202-0.0237 1.0241 0.93689 0.55044 2.6091 0.52484 0.0593 1.0753 1.0674 0.33283-0.26091 0.76806-0.0356 0.20482 0.2609 0.07681 0.40323 0.44804 0.26091 0.51204-0.37951 0.75526 0.26091 0.07681 0.40323 0.24322 0.36764 0.39683 0.22533 0.19202 0.24905 0.96007 0.34393 0.19202-0.21347 0.26882 0.50996 0.32002-0.17789 1.6641 0.66413 0.08961 0.64042 0.25602 0.36765 0.72966 0.28463 1.9714 0.36765 1.0369-0.47438 1.6129 0.28463 0.19202-0.0949 0.69125 0.36765 1.1777-0.86575 0.55044-0.96063-0.67845-0.35579 0.0512-0.42695 1.1521-0.69971 0.56324 0.26091 0.64005-0.80645 0.47364-0.16603 0.35203 0.36764 0.34563-0.52182 0.19202 0.10674 0.46724-0.23719 0.24962-0.37357v-0.30835l0.71686-3.9255-0.91527 3.5875 0.32642-0.9191 0.33923-0.4388 1.1137-0.90725 1.1521-0.65819 1.2673-0.17197 1.1137-0.0711 1.0113 0.23719-0.16641 0.54553 0.34563 0.083-0.14081 1.0911 0.17921 0.13045 0.10241 0.50996 0.49924 0.13045 0.34563 0.9962 0.97288 0.11859 1.0625-0.4388 0.74246 0.1186 0.84487-0.16603 1.1393-0.74715 0.83206 0.28463 0.48644 0.3202 1.0753-0.0119 0.35843-0.27277 0.35843-0.42694 0.34563-0.0356 0.14081-0.26091 0.56324 0.0356 0.35843 0.15417 0.78086 0.0237 0.19202 0.18975 0.06401 0.24905-1.9842 0.0949 0.19202 0.27277 4.5572-0.0712 0.23042-0.61669 0.46084-0.0356 2.9058 1.1622 1.4465 0.30835 1.2417 0.0119 1.4337-0.4388 0.38402 0.14231 0.93448-0.68785 0.39683 0.0593 1.0625-0.47438 0.30722-0.56925 0.57605 0.11859 0.15361-0.3202 2.4962-0.0593 0.0384-1.4587 0.42243-0.3795 0.60164-0.083-0.0128-0.52181 0.83207-0.16603 0.49924-0.42694 0.12161-0.49216-0.42884-0.27277-0.38403 0.21347 0.22402-1.0614-0.0384-0.81829-0.17922-0.24312 6e-3 0.0297 0.48644-1.2274-0.27522-0.20753-0.0704-0.30834-0.44803 0.0474-0.88327-1.435-0.53124-0.22532-0.28802 0.2016-0.22402 0.29648-2.2914-0.31427-1.2609-0.0712-1.7793 0.37356 0.71685-0.5218-0.1024-0.37949-0.99848 0.59295-0.48644-0.0949-0.61445-0.71154-0.20482-1.1622-0.15361-2.9648 1.5361-4.198 1.4081-3.5339 3.3795-4.3165 0.66565-0.75894 4.4035-3.3619 1.6961-0.49805 0.0832 0.40912 0.56964 0.39132 0.35203 0.55735 3.6227 1.7017 0.48003 0.61071 0.56965 0.26089 3.0722-0.0949 2.8162 0.99612 0.15362-0.56921 3.4307-2.0397 3.5331-1.423 0.30722-0.5692 1.6129-3.3322 1.1073-0.6107 0.61445-0.73521 1.1137-0.37353 0.43524-0.63441 1.1585-0.69371 0.87686 0.13044 0.032 0.20752 1.1137 0.46247 1.5745-0.26681 0.49924 0.24309 0.22402 0.0178 0.42883-0.15416 0.28163-0.20751-0.24322 0.37353-0.032 0.37353 1.0177 0.59291 0.33923-0.0652 1.4721 0.24902 0.64005-6e-3 1.1521-0.16008 0.36483-0.31425 1.2225-1.6127 0.0256-0.32017-0.0832-0.26088-0.56324-0.0237 0.0512-0.18973 0.14721-0.16601 1.9714-1.0613 0.20481 0.0534 0.26242-0.1423 0.86407-0.69962 0.19841 0.0296-0.31362 0.3261 0.13441 0.11265 0.88327 0.0237 0.23042-0.0711 0.13441 0.10079 0.22401-0.12451-0.064-0.11858 0.10881-0.10672-0.0384-0.14822 0.0384-0.0771 0.0896 0.0889 0.14081-0.13636 0.16002-0.81228-0.0896-0.16008 0.12161-0.34388-0.30722-0.61069-0.18562-0.20158 0.0128-0.29645 0.30083-0.68183 0.0576-0.84191-0.16641-0.82413-0.16642-0.30237-0.19201-0.0771-1.0433 0.32609-1.3889-2.668 2.7138-1.1443-1.2545-2.3893-0.13441 0.083 1.1521 2.1818-2.5538 1.1146-1.6769-3.3676-0.0128-0.21344 0.37123-0.77667 0.032-0.40316-0.21762-0.60474-0.51204-0.18379-0.12161 0.10079-1.1265-0.71738 0.18562-0.24901-0.79366-0.49209 0.75525-0.95453-0.0384-0.0593 0.97928 0.0356 0.23682-0.0889 0.12801 0.0237 6e-3 -0.10079-0.11521-0.0296-0.0128 0.0474-0.24322 0.083-6e-3 -0.0415-0.11521-6e-3v0.0415l-0.22402 0.0119-0.0256-0.1245-0.87047-0.0415 0.0512 0.11857-0.30722 0.0356 0.032-0.0711-0.13441 0.0119-0.0192 0.0474-0.26242-0.13044-0.0512-0.0356-0.0128 0.14229 0.39683 0.10672 0.42243-0.0119-0.70405 0.90117-0.53765-0.3913-3.2642 4.328-1.1393-0.71146 1.0753-1.3636-0.12801-0.2253 1.6513-1.9921-0.17921-0.14229-1.6257 2.0395-2.2914-1.5652-0.26882 0.0356-0.0896 0.22529-0.89607-0.65216-1.8689 2.4189-3.3283-2.3004-0.60165 0.83003-1.8433 0.35573-0.064-0.55731 0.0256-0.35572-0.57605-0.24901 0.0256-0.24901 0.25602-1.0197-0.30722-0.21344 0.0768-0.39129 0.0896-0.27272-0.29442-1.1857-0.35843 0.0118-0.61445 0.69959 0.39683 0.74702-0.44803 0.45058-0.23042 0.68773 0.21762 0.20158-0.48644 0.24901-0.26882 0.30829-0.0512 0.40316-1.933 0.64031-1.0881-0.45059-0.15361-0.29644v-0.22529l0.19202-0.17786-0.064-0.21344-0.23042-0.11857-0.39683 0.36758-0.39683-0.11858 0.58885-3.9248-0.0896-1.2924-1.2225-1.6837 0.0256-0.19564 0.096-0.0949 0.10241 0.0415 6.1957-5.8811 0.46084-0.54542 0.64645-1.7015 0.33922 0.0949 6e-3 0.14229 1.4337 0.53356 0.0832-0.14228 0.23682 0.0889 0.0832-0.11264-0.23682-0.14821 0.0192-0.16007-1.4593-0.57506-0.032 0.0889-0.36482-0.11264 0.53124-1.1738 0.45443-0.78848 0.0384-0.13636-0.19842-0.16006-0.53764-0.20157-0.59525-0.11857-1.3377 0.21935-9.4279 6.0411-0.96648 0.74699v0.43279l0.0512 0.26086 1.5105 1.8616-0.57605 0.55136-0.0896-0.249-0.33922 0.22529-0.0768-0.19565h-0.46083l-0.69126 0.40315-0.28162 0.47429-1.9458 1.0909-0.25602-0.37943v-0.28457l-0.92167-0.87744 0.99848-1.9209 1.5873-2.3477 0.84486-3.5097-0.28162-1.4228 0.0512-0.71141-0.30723-0.37942-0.17921-0.0237-0.15361-0.42685-0.23042-0.21342 0.76806-0.61656 0.66565-0.47427 0.92167-0.45056 1.2033 0.47428 1.6129-0.0712 0.64005-0.37941 3.2002-0.21342 2.4834-1.4465 2.4066 0.0474-0.56325 0.61655-0.0512 0.80626 1.5873 0.42684 0.56324-0.0948 1.6385 1.0434 0.51204-0.47427 0.25602-1.0908 1.6385 0.47427 0.87046 0.94855 0.46084 1.5651 0.71686 0.42685 1.2801-0.75884 1.0241 0.5217 1.0753-0.14228 0.30722-1.1857-2.3554-2.1342-0.46084-1.4702-0.25602-0.9011 0.40963-0.85368 2.2018-0.94853-0.46084-3.889-24.399-15.01-2.893-0.64023-4.2499 2.964-0.66565 0.82992-0.30723-0.0711v-0.68765l3.9171-2.5135 1.1521-1.3279 1.2545-1.3041 0.10241-0.75878 30.671 18.851-0.64005 0.82996 0.99848 2.727 1.2289 0.16599 10.113 27.437 1.8433 1.3281 6.4005-1.8498 1.1265-1.8972-26.268-71.043-1.6641-1.0432-0.71685-0.0237-2.9442 0.82985-0.79366 0.97211-0.43524 1.1381 0.81927 2.2762-14.593 4.6947-0.15361-0.45051 0.46083-0.56905 11.367-3.6988-2.5602-6.0698-2.5602 0.94839-4.4036-11.428-0.56324 0.0474 2.8674 7.4922-1.4593 5.4533-1.5873 1.5886-0.0768 0.35565 1.0241 2.4896-3.3283 1.067 0.33283-1.8257 0.66565-2.3236-0.56324-0.0948 0.99847-3.5802-0.46083-0.11855-1.0753 4.0307-1.997-0.37936 2.1506-7.1367-3.5587-0.94839-2.2018 7.3026-3.8659-0.85356 0.69126-2.1102-0.81927-0.2371-0.64005 2.1339-1.5617-0.40307 0.89607-3.2008-0.43523-0.18968v-0.42677l5.0692-7.2788 0.33283-0.54531-0.17922-0.59273-0.23042-0.75869-0.64005-0.33193-2.637 3.6749-3.4819-0.92466-0.46084 0.0711-0.43523 0.35564-1.4593 5.5717-6.8869-4.5996-10.778-3.4141-0.74246 5.1686 0.12801 0.97209 0.30722 0.68757 0.46084 0.42677 0.76806 0.40307 3.5587 0.87725-1.2801 4.41-0.28162 0.8417-0.39683 0.0593-3.9043-1.067 1.0753-0.86541 0.37123-0.61646 0.0128-0.64017-0.42243-0.59274-1.1137-0.72315-0.62725-0.82984-0.16641-1.2803-0.15361-34.78-0.10241-17.377-0.35843-17.281v-1.1852l-0.17921-1.2563 0.25602-2.489-0.17921-0.90076-0.64005-0.85335-0.61445-0.33186-3.7763-11.348 0.53124-0.16-0.32002-0.88295-0.39683-2.0266-0.23682-2.8444 0.0256-0.17185 0.22402-2.3229-0.13441-2.9984-0.46724-2.2814-0.0448-0.40887-0.17921-0.10666-0.50564-0.98957-1.2609-1.7362 0.0384-0.28442-0.30722-0.08296-1.3057-1.2088-1.1265-0.73476 0.0128-0.24887-0.57604-0.0474-3.8395-1.3743-6.0421-1.8606-0.26882-0.48589-7.623-2.7316-1.3249-0.49181 0.39683-3.4011-1.933 0.30812-0.84486 0.48588-1.4593 0.33182-0.96007-0.13036-0.72966-0.26071-0.21762 0.059253" fill="#ccc"/>
<path d="m49.738 83.498-1.0369 0.72307-1.4337 0.6401-2.637 0.71122-3.2515 0.74678-0.24322-0.13039-0.97288-4.1725 1.3825-0.88901-0.16641-0.07112-0.60165 0.20151-0.28162-0.24892-1.9714 0.36746 9.3319 42 2.0226 0.45049 1.0497-0.48606 1.0625-0.50976 1.6897-0.6046 1.6001-0.39122 1.9458-0.0593 1.5873 0.0474 1.2929 0.22524 1.4593 0.64017 0.98568 0.0119 0.79366-0.15411 0.83206-0.0356 0.66565-0.18968 0.88327-0.87727 0.40963-0.17782h0.53764l0.15361-0.17783 0.0384-0.43863 0.20482-0.24895 0.25602 0.083 0.08961 0.53347 0.89607 0.56904 1.0241 0.11855 0.79366-0.0474 0.90887 0.11855 0.21762 0.21339 2.9314 0.79428 0.53764-0.0711 0.21762 0.32008 1.1649 0.32009 4.4291 0.30823 1.3697-0.0711 0.35843-0.84171 0.39683-2.6555 0.0256-1.3514-0.10241-35.977-0.15361-17.922-0.38403-17.945-0.58884-3.046-0.87047-0.92447-1.4081-0.5689-0.99848-0.0237-1.6641 0.64002-0.76806 1.4934 2.2786 1.1615-3.1234 4.7409-1.5617-0.08297-5.8244-2.9394 0.24322-0.2726-0.67845 0.09482-0.47364 0.56891 0.30722 0.15408-1.3697 1.7186 2.0866 1.4816-1.3569 1.6238 0.30722 0.28446 0.064 0.55707-0.24322 0.36743 0.10241 0.75856 0.16641 0.50966 1.0113 1.8846-0.96007 0.40299 0.34563 0.74672 1.2289-0.48596 2.0482 4.4448-1.1905 0.47411 0.40963 0.93638 1.5489 0.58079-0.72966 1.8135-0.69125-0.27262-1.1905 0.50968 0.15361 0.32003 0.37123 0.36744 0.16641-0.03556 0.25602 0.18965 0.39683-0.18965 0.0128 0.23706-0.26882 0.1778-0.32002 0.7823 0.24322 0.80601 0.89607 1.0312v0.34374l0.29442 0.33189 0.52484 0.29633 0.16641 0.26077v0.09483l-0.34563 0.33189-0.75526-0.3793-0.76806 1.5765 0.25602 0.68749-0.38403 0.78231-0.64005 0.18965-1.9201 1.1142-1.0241-0.09483-0.48644-0.33189-0.25602-0.87714 0.23042-0.56896-1.6129-3.4137-0.79366 0.42671-6.3237 2.3469-0.30722-0.07112-0.23042-0.40301-0.79366 0.33189 0.56324 1.0668 0.56324 0.26077 0.07681 0.52154-0.15361 0.33189-0.38403 0.02371-0.51204-0.23707-0.0256-0.42672 0.17921-0.45042-0.48644-1.0194-0.62725 0.23706-0.76806 0.16594-0.88327 0.40301-1.6001 0.69934-1.6897 0.7349 0.14081 0.13039 3.9683-1.5528 0.40963-0.07112 0.21762 0.18965-0.38403 1.5646-1.1393 3.9946-0.42243 0.92457-0.66565 1.1616-0.85767 1.0194-1.0241 0.93643" fill="#fff"/>
<path d="m47.332 123.85 0.0704-0.37343-8.199-36.908-1.1137-5.1208-1.5617 0.29634 1.2289 5.0259-0.30722 0.28449-6.2469 1.2565-1.7409 0.3319-2.125 0.73493-1.7665 0.33191-4.7876-0.16595-2.6882 0.37932-0.35843 0.42674-0.64005-0.02371-0.38403-0.37932-1.5105-0.07112-1.4081 0.28449-0.25602-0.40303h-0.20482l-0.23042 0.3082-1.3569 0.04742-0.40963 0.28449-0.12801 0.54528v0.80606l0.58884 1.3276 0.79366 2.1337 12.98 25.914h0.48644l0.46084 0.37936 1.5617 2.9637 0.43523 1.1144 0.10241 0.94841 1.1265 0.59275 1.7665 0.56905 0.61445-0.28452 1.8177-1.2329 1.3313-0.16598 4.6596-0.14226 1.0753-0.21339 1.8177-0.49791 3.9427-0.45049 0.46084-0.42678 0.10241-0.42678" fill="#fff"/>
<path d="m27.983 194.02 16.628-0.88338-2.0418 36.962-2.1122 0.0712-10.906-6.9254-0.83846-1.34-1.3825-27.196 0.65285-0.68774" fill="#ccc"/>
<path d="m74.687 30.161-2.4578 0.77036-0.76806 0.52148-0.19202 0.58074-0.65285 0.67555-0.48644 0.27259-0.70406 0.32-0.55044 0.11852-0.32002-0.13037-0.19202-0.3674-0.21762-0.23704-3.3411 1.4696-1.5489 0.24889-0.74246 0.33185-0.83206 0.75852-0.28162 0.42667 0.0128 0.32 1.7409 6.7794 0.0384 0.47409-0.07681 0.67557 0.15361 0.28445 0.28162 0.32001 2.0354 1.2919 0.33283 0.09482 0.30722 0.0237 0.49924-0.11852 0.53764-0.71113 0.16641-0.64002 0.17921-0.23704 0.69125-0.61631 0.66565-0.20149 0.47364-0.04741 8.7687-2.5838 0.46084-0.28445 0.21762-0.43853-0.0384-0.40297-2.9058-9.0311-0.25602-0.41481-0.48644-0.22518-0.51204-0.07111" fill="#fff"/>
<path d="m38.205 68.764-0.44803 0.27262-0.48004 0.45042-0.35203 0.5808-0.23682 0.80008-0.0064 0.81787-0.0448 0.24299-0.18561 0.26077 1.997 8.6529 2.6946-0.58082 1.7601-0.77047-4.698-10.727" fill="#fff"/>
<path d="m35.996 72.267-0.19842-0.06519-0.12161-0.10668-0.16641-0.34967-0.29442-0.39708-0.08961 0.03556 0.0576 0.25484-0.0448 0.39115-0.12801 0.23706-0.71046 0.59266-0.43523-0.07112-0.71686-0.32004-0.65285-0.79416-0.28802-0.81787-0.14081-0.66378-0.38403-0.54524 0.15361-0.10668 0.30082-0.01778-0.14721-0.36152 0.12161-0.26669 0.42243-0.37337-4.1987-2.1217-0.16641 0.21928-0.15361 0.14224-1.6193-0.88897 0.40963-0.24891-2.2274-1.1971-0.32643 0.58079 0.30082 0.96602-0.97928 0.2904-0.87687 1.4164-0.21122 0.56895 0.10881 0.12446-0.16641 0.04149-0.26242 1.2031 0.15361 0.04741-0.15361 0.08297-0.0448 1.2742 0.16641 0.07704-0.14721 0.07112 0.17921 1.1616 0.22402 0.0889 0.09601 0.22521 0.81286 0.48598 0.12161 0.47413 0.08961 0.05334-0.28802 0.38523 0.0064 0.15409 0.16001-0.02963 0.34563 0.77046-0.08961 0.12446 0.21762 0.31411 0.44163 0.04741 0.0384 0.11853-0.21762 0.14224 0.0128 0.16595 0.17921-0.14224 0.24322 0.11853-0.21122 0.36153 0.20482 0.30226 1.1585-0.84158 0.81926 0.94234-1.4977 1.0194-0.12801 0.39709 1.7153 1.3394 0.17921-0.24892 0.65285 0.42672-0.14081 0.1541 0.14081 0.49784 1.3825 0.55711 2.189 0.77048 1.7665 0.32004 4.9412-0.88901-1.8881-8.6707" fill="#fff"/>
<path d="m19.867 74.306-3.2963 0.45042-0.49284 0.17187-0.36483 0.20743-0.28162 0.40301-0.23682 0.47413 0.0064 0.52155-0.30082 1.5054-0.31362 0.23707-2.1058 0.96605-0.71046 0.40302-0.13441 0.21929-0.16641 0.50377 0.16641 1.3217v0.61046l-0.54404 1.7069-0.33283 0.43858-0.48004 0.47414-1.5041 0.39117-1.5105-0.42673-0.22402 0.18373-0.41603-0.13632-0.089607-0.21929-0.34563-0.32598-0.44163-0.22522-1.3249-0.43266-0.51204 0.10076-0.025602 0.18373 0.27522 0.53341 0.72326 0.78234 0.69765 0.62824 0.74886 0.29634 1.0241 0.27856 0.096007-0.0889 4.1539 1.0965 0.55044 0.28449 1.1457 0.20151 0.08321 0.32598 0.44804 0.02963 0.0576-0.22522 1.3249-0.07705 0.76166 0.13039 0.53124-0.18373 0.19842-0.87718 0.82566 0.23115 0.25602-0.8179 0.41603-0.76456-0.53764-0.40302 0.69765-0.71714 0.72326-0.486 1.4721-0.85938-0.0448-0.76455-0.10881-0.19558-0.14081-0.56897 0.0384-0.33782 0.0576-0.19558-0.0384-0.33782 0.18561-0.23114-0.90887-0.33782v-1.4165l-0.20482 0.14224-0.88967-0.4208-0.0512-0.33782 0.10881-0.49192 0.40963-0.48599 0.26882-0.38523-0.21762-0.40301 0.22402-0.40894 0.39043-0.33189 0.23042-1.5172" fill="#fff"/>
<path d="m135.88 131.53-5.2356-0.99585-1.0369-0.0948-1.0113 0.22525-8.4102 2.7149 0.0384 0.28453-0.48644 1.7309 0.16641 0.14226-0.0256 0.3201-0.29442 0.13041-1.6129 5.8092-0.97287 2.2052-0.71686 0.99589 0.81926 0.49794 0.76806 0.0711 0.48644 0.16598 0.17922 0.54537-0.35843 0.59279-0.48644 0.28454-0.33283-0.0474-0.64005-0.71134-0.0768-0.26083-0.76806-0.45052-0.35843 0.54537 30.287 18.685 1.4337-1.8496-11.354-31.536" fill="#fff"/>
<path d="m89.805 195.78-6.5029-0.26679-0.50564 0.0593-0.16001 0.0889-0.11521 0.18972 0.032 0.72331-0.35203 5.7984 0.10241 1.1976 0.39683 0.52768 0.45444 0.25494 0.32642 0.083 0.64645 0.0296 0.62725-0.18972 0.60165-0.27866 0.59525-0.17194-0.0448-0.33795 0.16001-0.0593 0.42243 0.0119 0.26242-0.15415 0.24962 0.0474 0.12161 0.0771 0.24322-0.10079 0.24322 0.16008 0.20482-0.0237 0.14081-1.1858 0.16641-0.16601 0.12161-0.0296 0.44804 0.0949 0.87047 0.0178 0.21122-0.0771 0.06401-0.13637 0.08321-1.6364-0.28162-0.19565-0.14721-0.0356-0.17281 0.0237-0.16641-0.083 0.0448-0.166-0.0384-0.12451-0.15361-6e-3 -0.12161-0.13043-0.0128-0.29051 0.0064-0.14823 0.30722-0.56916-0.07681-1.0138 0.17281-0.22529 0.35203-0.30237 0.24962-0.37352 0.12161-0.31422-0.0256-0.37944-0.17281-0.21344" fill="#fff"/>
<path d="m82.662 14.754h-1.2801l-1.3825 0.52145-0.40963 1.0903 0.35843 6.5419 0.61445 6.5421 4.1475 8.5807 1.2545 4.5512-0.10241 10.169 0.07681 10.146 5.2996 2.5128 3.2771 1.1616 4.7364-0.11853 1.0241-0.52153 0.43524-0.99565 0.0256-1.4935-1.0753-12.232-0.40963-7.3484-0.051204-7.0638-1.5361-7.1585-1.997-6.3524-1.7921-3.0814-3.6355-2.5599z" fill="#ccc"/>
</g>
</svg>
